<?xml version="1.0" encoding="UTF-8"?>
<svg id="a" data-name="Layer 1" xmlns="http://www.w3.org/2000/svg" viewBox="0 0 350.7 330.45">
  <g>
    <path d="M186.9,48.75v35.4h-78.3c-39,0-56.1,19.5-56.1,66s16.8,65.7,56.1,65.7h78.3v35.4h-78.3c-59.1,0-91.5-33.3-91.5-101.1S49.8,48.75,108.6,48.75h78.3Z" fill="#27aae1"/>
    <path d="M242.4,48.75c59.1,0,91.2,33,91.2,101.4s-31.8,101.1-91.2,101.1h-71.4c-11.4,0-16.8-5.4-16.8-16.5V65.25c0-11.1,5.4-16.5,16.8-16.5h71.4ZM189.6,212.25c0,2.7,1.2,3.6,3.9,3.6h48.9c39.3,0,55.8-19.5,55.8-66s-16.5-65.7-55.8-65.7h-48.9c-2.7,0-3.9.9-3.9,3.6v124.5Z" fill="#58595b"/>
  </g>
  <g>
    <path d="M20.17,285.33v-16.34c0-3.28,2.07-4.61,5.6-4.61h3.76c3.53,0,5.6,1.33,5.6,4.61v3.35h-3.11v-2.7c0-2.02-.58-2.66-2.8-2.66h-3.15c-2.23,0-2.8.65-2.8,2.66v15.05c0,2.02.58,2.66,2.8,2.66h3.15c2.22,0,2.8-.65,2.8-2.66v-2.7h3.11v3.35c0,3.28-2.07,4.61-5.6,4.61h-3.76c-3.53,0-5.6-1.33-5.6-4.61Z" fill="#58595b"/>
    <path d="M41.54,285.33v-20.73h3.11v20.09c0,2.02.58,2.66,2.8,2.66h2.61c2.22,0,2.8-.65,2.8-2.66v-20.09h3.11v20.73c0,3.28-2.07,4.61-5.6,4.61h-3.22c-3.53,0-5.6-1.33-5.6-4.61Z" fill="#58595b"/>
    <path d="M63.25,264.6h8.29c3.53,0,5.6,1.33,5.6,4.61v4.21c0,2.66-1.38,4.03-3.8,4.43l4.95,11.95h-3.34l-4.72-11.77h-3.91v11.77h-3.07v-25.2ZM71.23,275.43c2.23,0,2.8-.68,2.8-2.66v-2.95c0-1.98-.58-2.66-2.8-2.66h-4.91v8.28h4.91Z" fill="#58595b"/>
    <path d="M84.35,264.6h8.29c3.53,0,5.6,1.33,5.6,4.61v4.21c0,2.66-1.38,4.03-3.8,4.43l4.95,11.95h-3.34l-4.72-11.77h-3.91v11.77h-3.07v-25.2ZM92.33,275.43c2.23,0,2.8-.68,2.8-2.66v-2.95c0-1.98-.58-2.66-2.8-2.66h-4.91v8.28h4.91Z" fill="#58595b"/>
    <path d="M105.76,264.6h13.27v2.56h-10.17v8.28h9.13v2.59h-9.13v9.21h10.17v2.56h-13.27v-25.2Z" fill="#58595b"/>
    <path d="M125.97,264.6h3.95l5.14,13.71,2.53,7.59-.15-7.59v-13.71h2.88v25.2h-3.95l-5.14-13.71-2.53-7.6.15,7.6v13.71h-2.88v-25.2Z" fill="#58595b"/>
    <path d="M165.95,287.24h3.26v-20.09h-3.26v-2.56h11.74c3.53,0,5.6,1.33,5.6,4.61v15.98c0,3.28-2.07,4.61-5.6,4.61h-11.74v-2.56ZM177.38,287.24c2.22,0,2.8-.68,2.8-2.66v-14.76c0-1.98-.58-2.66-2.8-2.66h-5.06v20.09h5.06Z" fill="#58595b"/>
    <path d="M194.91,279.61l-7.4-15.01h3.3l3.26,6.73,2.42,5.18,2.46-5.18,3.26-6.73h3.18l-7.4,15.01v10.19h-3.07v-10.19Z" fill="#58595b"/>
    <path d="M210.37,264.6h3.95l5.14,13.71,2.53,7.59-.15-7.59v-13.71h2.88v25.2h-3.95l-5.14-13.71-2.53-7.6.15,7.6v13.71h-2.88v-25.2Z" fill="#58595b"/>
    <path d="M236.77,264.6h3.72l7.44,25.2h-3.26l-1.61-5.76h-8.9l-1.65,5.76h-3.18l7.44-25.2ZM242.4,281.48l-2.22-7.85-1.57-5.51-1.57,5.51-2.26,7.85h7.63Z" fill="#58595b"/>
    <path d="M255.68,275.07l-1.76-6.52.23,7.52v13.71h-2.84v-25.2h3.99l2.53,8.24,2,7.2,1.96-7.2,2.53-8.24h3.87v25.2h-2.84v-13.71l.23-7.52-1.76,6.52-2.72,8.78h-2.68l-2.72-8.78Z" fill="#58595b"/>
    <path d="M273.56,287.24h5.75v-20.09h-5.75v-2.56h14.58v2.56h-5.75v20.09h5.75v2.56h-14.58v-2.56Z" fill="#58595b"/>
    <path d="M294.47,285.33v-16.34c0-3.28,2.07-4.61,5.6-4.61h3.76c3.53,0,5.6,1.33,5.6,4.61v3.35h-3.11v-2.7c0-2.02-.58-2.66-2.8-2.66h-3.15c-2.23,0-2.8.65-2.8,2.66v15.05c0,2.02.58,2.66,2.8,2.66h3.15c2.22,0,2.8-.65,2.8-2.66v-2.7h3.11v3.35c0,3.28-2.07,4.61-5.6,4.61h-3.76c-3.53,0-5.6-1.33-5.6-4.61Z" fill="#58595b"/>
    <path d="M315.79,285.33v-3.35h3.11v2.7c0,2.02.58,2.66,2.8,2.66h2.69c2.22,0,2.8-.65,2.8-2.66v-1.58c0-1.3-.46-1.98-1.38-2.63l-7.06-4.5c-1.69-1.04-2.57-2.3-2.57-4.54v-2.45c0-3.28,2.03-4.61,5.6-4.61h2.61c3.53,0,5.6,1.33,5.6,4.61v3.35h-3.11v-2.7c0-2.02-.58-2.66-2.8-2.66h-2c-2.22,0-2.84.65-2.84,2.66v1.48c0,1.3.46,1.98,1.42,2.59l7.02,4.5c1.69,1.08,2.61,2.34,2.61,4.57v2.56c0,3.28-2.07,4.61-5.6,4.61h-3.3c-3.53,0-5.6-1.33-5.6-4.61Z" fill="#58595b"/>
  </g>
</svg>